<svg width="160px" height="90px" viewBox="0 0 428 166" fill="none" xmlns="http://www.w3.org/2000/svg">
<path d="M0.289062 107V0.799994H5.68906V107H0.289062ZM11.0891 107V0.799994H27.2891V107H11.0891ZM32.6891 107V0.799994H38.0891V107H32.6891ZM43.4891 107V0.799994H59.6891V107H43.4891ZM75.8891 107V0.799994H81.2891V107H75.8891ZM43.3091 165.14C37.9091 165.14 33.5291 163.34 30.1691 159.74L32.6891 155.6L32.8691 155.06L33.4091 155.24C33.4091 155.36 33.4691 155.6 33.5891 155.96C33.5891 156.2 33.7091 156.5 33.9491 156.86C34.0691 157.1 34.3091 157.34 34.6691 157.58C37.1891 159.74 40.3091 160.82 44.0291 160.82C46.4291 160.82 48.4691 160.16 50.1491 158.84C51.8291 157.4 52.6691 155.72 52.6691 153.8C52.6691 152.48 52.3691 151.34 51.7691 150.38C51.2891 149.54 50.3891 148.7 49.0691 147.86C47.7491 147.02 45.7091 146 42.9491 144.8C38.8691 143.24 35.9291 141.44 34.1291 139.4C32.4491 137.36 31.6091 135.08 31.6091 132.56C31.6091 129.44 32.7491 126.92 35.0291 125C37.3091 123.08 40.3691 122.12 44.2091 122.12C46.4891 122.12 48.6491 122.6 50.6891 123.56C52.6091 124.52 54.3491 125.78 55.9091 127.34L52.8491 131.48L52.4891 131.12C52.4891 131 52.4291 130.82 52.3091 130.58C52.3091 130.22 52.1891 129.92 51.9491 129.68C51.8291 129.32 51.5891 129.02 51.2291 128.78C50.2691 127.82 49.1291 127.1 47.8091 126.62C46.6091 126.26 45.1691 126.08 43.4891 126.08C41.3291 126.08 39.6491 126.68 38.4491 127.88C37.1291 129.08 36.4691 130.52 36.4691 132.2C36.4691 133.52 36.7091 134.66 37.1891 135.62C37.7891 136.58 38.8091 137.48 40.2491 138.32C41.6891 139.28 43.8491 140.3 46.7291 141.38C50.6891 143.06 53.4491 144.74 55.0091 146.42C56.4491 148.22 57.1691 150.44 57.1691 153.08C57.1691 155.12 56.6891 157.04 55.7291 158.84C54.6491 160.64 53.0891 162.14 51.0491 163.34C48.8891 164.54 46.3091 165.14 43.3091 165.14ZM86.7734 107V0.799994H92.1734V107H86.7734ZM97.5734 107V0.799994H102.973V107H97.5734ZM108.373 107V0.799994H124.573V107H108.373ZM129.973 107V0.799994H146.173V107H129.973ZM162.373 107V0.799994H167.773V107H162.373ZM127.093 126.8H115.393V122.66H144.193V126.8H131.953V164.42H127.093V126.8ZM173.258 107V0.799994H189.458V107H173.258ZM194.858 107V0.799994H200.258V107H194.858ZM205.658 107V0.799994H221.858V107H205.658ZM227.258 107V0.799994H232.658V107H227.258ZM248.858 107V0.799994H254.258V107H248.858ZM216.458 165.14C211.658 165.14 207.998 163.28 205.478 159.56C202.838 155.84 201.518 150.56 201.518 143.72C201.518 137.12 202.838 131.9 205.478 128.06C208.118 124.34 211.778 122.48 216.458 122.48C221.138 122.48 224.798 124.34 227.438 128.06C230.078 131.9 231.398 137.12 231.398 143.72C231.398 150.56 230.078 155.84 227.438 159.56C224.918 163.28 221.258 165.14 216.458 165.14ZM216.458 161C219.698 161 222.158 159.56 223.838 156.68C225.638 153.68 226.538 149.36 226.538 143.72C226.538 138.44 225.638 134.24 223.838 131.12C222.038 128.12 219.578 126.62 216.458 126.62C213.338 126.62 210.878 128.12 209.078 131.12C207.278 134.24 206.378 138.44 206.378 143.72C206.378 149.36 207.218 153.68 208.898 156.68C210.698 159.56 213.218 161 216.458 161ZM259.742 107V0.799994H275.942V107H259.742ZM281.342 107V0.799994H297.542V107H281.342ZM302.942 107V0.799994H308.342V107H302.942ZM324.542 107V0.799994H329.942V107H324.542ZM335.342 107V0.799994H340.742V107H335.342ZM305.282 165.14C302.162 165.14 299.402 164.36 297.002 162.8C294.482 161.24 292.502 158.9 291.062 155.78C289.622 152.54 288.902 148.52 288.902 143.72C288.902 138.68 289.682 134.54 291.242 131.3C292.802 128.18 294.782 125.9 297.182 124.46C299.582 123.14 302.162 122.48 304.922 122.48C307.922 122.48 310.502 123.2 312.662 124.64C314.822 126.08 316.442 128.06 317.522 130.58L313.562 132.56L313.022 132.74L312.842 132.38V131.84C312.842 131.36 312.542 130.7 311.942 129.86C310.982 128.54 309.902 127.58 308.702 126.98C307.502 126.38 306.242 126.08 304.922 126.08C301.322 126.08 298.502 127.64 296.462 130.76C294.542 133.76 293.582 138.02 293.582 143.54C293.582 146.9 294.062 149.96 295.022 152.72C296.102 155.36 297.482 157.4 299.162 158.84C300.962 160.28 302.942 161 305.102 161C306.782 161 308.342 160.58 309.782 159.74C311.342 158.78 312.602 157.52 313.562 155.96L316.982 158.3C315.542 160.58 313.922 162.26 312.122 163.34C310.202 164.54 307.922 165.14 305.282 165.14ZM346.227 107V0.799994H362.427V107H346.227ZM367.827 107V0.799994H373.227V107H367.827ZM378.627 107V0.799994H384.027V107H378.627ZM389.427 107V0.799994H405.627V107H389.427ZM421.827 107V0.799994H427.227V107H421.827ZM376.467 122.66H388.707C393.507 122.66 396.987 123.74 399.147 125.9C401.427 127.94 402.567 130.88 402.567 134.72C402.567 137.12 401.787 139.4 400.227 141.56C398.667 143.72 396.627 145.16 394.107 145.88L403.827 164.42H398.607L389.247 146.06H381.147V164.42H376.467V122.66ZM389.247 141.92C392.127 141.92 394.287 141.26 395.727 139.94C397.047 138.74 397.707 137 397.707 134.72C397.707 132.44 397.047 130.58 395.727 129.14C394.287 127.82 392.127 127.16 389.247 127.16H381.147V141.92H389.247Z" fill="#940000"/>
</svg>